# Blender v2.91.0 OBJ File: 'box.blend'
# www.blender.org
o Cube
v -0.500000 -0.500000 -0.500000
v -0.500000 -0.500000 0.500000
v -0.500000 0.500000 -0.500000
v -0.500000 0.500000 0.500000
v 0.500000 -0.500000 -0.500000
v 0.500000 -0.500000 0.500000
v 0.500000 0.500000 -0.500000
v 0.500000 0.500000 0.500000
vt 0.673039 0.927085
vt 0.668004 0.932120
vt 0.668004 0.927085
vt 0.673039 0.932120
vt 0.668004 0.937155
vt 0.673039 0.937155
vt 0.668004 0.942191
vt 0.673039 0.942191
vt 0.668004 0.947226
vt 0.662968 0.942191
vt 0.662968 0.937155
vt 0.678075 0.937155
vt 0.673039 0.947226
vt 0.678075 0.942191
vn -1.0000 0.0000 0.0000
vn 0.0000 1.0000 0.0000
vn 1.0000 0.0000 0.0000
vn 0.0000 -1.0000 0.0000
vn 0.0000 0.0000 -1.0000
vn 0.0000 0.0000 1.0000
s off
f 2/1/1 3/2/1 1/3/1
f 4/4/2 7/5/2 3/2/2
f 8/6/3 5/7/3 7/5/3
f 6/8/4 1/9/4 5/7/4
f 7/5/5 1/10/5 3/11/5
f 4/12/6 6/8/6 8/6/6
f 2/1/1 4/4/1 3/2/1
f 4/4/2 8/6/2 7/5/2
f 8/6/3 6/8/3 5/7/3
f 6/8/4 2/13/4 1/9/4
f 7/5/5 5/7/5 1/10/5
f 4/12/6 2/14/6 6/8/6
