# Blender v2.91.0 OBJ File: 'cooler.blend'
# www.blender.org
o Cube
v 0.400000 0.400000 -0.200000
v 0.400000 -0.400000 -0.200000
v -0.400000 0.400000 -0.200000
v -0.400000 -0.400000 -0.200000
v 0.252308 0.252308 0.200000
v 0.400000 0.400000 0.151588
v 0.252308 -0.252308 0.200000
v 0.400000 -0.400000 0.151588
v -0.252308 0.252308 0.200000
v -0.400000 0.400000 0.151588
v -0.252308 -0.252308 0.200000
v -0.400000 -0.400000 0.151588
v 0.303177 -0.303177 0.200000
v -0.303177 -0.303177 0.200000
v 0.303177 0.303177 0.200000
v -0.303177 0.303177 0.200000
v 0.252308 -0.252308 0.129240
v -0.252308 -0.252308 0.129240
v 0.252308 0.252308 0.129240
v -0.252308 0.252308 0.129240
v 0.001754 0.400000 -0.200000
v 0.001754 -0.400000 -0.200000
v 0.001330 -0.303177 0.200000
v 0.001754 -0.400000 0.151588
v 0.001330 0.303177 0.200000
v 0.001754 0.400000 0.151588
v 0.001107 -0.252308 0.200000
v 0.001107 0.252308 0.200000
v -0.400000 0.000000 -0.200000
v 0.400000 0.000000 -0.200000
v 0.303177 0.000000 0.200000
v 0.400000 0.000000 0.151588
v -0.303177 0.000000 0.200000
v -0.400000 0.000000 0.151588
v 0.252308 0.000000 0.200000
v -0.252308 0.000000 0.200000
v 0.252308 0.000000 0.129240
v -0.252308 0.000000 0.129240
v 0.001754 0.000000 -0.200000
v 0.400000 0.200000 -0.200000
v 0.400000 0.200000 0.151588
v -0.303177 0.151588 0.200000
v -0.252308 0.126154 0.200000
v -0.400000 0.200000 -0.200000
v 0.303177 0.151588 0.200000
v -0.400000 0.200000 0.151588
v 0.252308 0.126154 0.200000
v 0.001754 0.200000 -0.200000
v -0.400000 -0.200000 -0.200000
v 0.303177 -0.151588 0.200000
v -0.400000 -0.200000 0.151588
v 0.252308 -0.126154 0.200000
v 0.001754 -0.200000 -0.200000
v 0.400000 -0.200000 -0.200000
v 0.400000 -0.200000 0.151588
v -0.303177 -0.151588 0.200000
v -0.252308 -0.126154 0.200000
vt 0.462903 0.066550
vt 0.467404 0.063978
vt 0.467404 0.066550
vt 0.462903 0.080619
vt 0.467404 0.079339
vt 0.467404 0.080619
vt 0.467404 0.070379
vt 0.469953 0.069099
vt 0.469953 0.070379
vt 0.324620 0.698273
vt 0.321390 0.696659
vt 0.324620 0.696659
vt 0.462903 0.070379
vt 0.467404 0.069099
vt 0.301533 0.054093
vt 0.303485 0.053474
vt 0.303482 0.054093
vt 0.305414 0.054093
vt 0.306653 0.054754
vt 0.305414 0.055063
vt 0.301533 0.057974
vt 0.300913 0.057314
vt 0.301533 0.057004
vt 0.305414 0.057974
vt 0.303485 0.058594
vt 0.303482 0.057974
vt 0.462903 0.076768
vt 0.467404 0.074219
vt 0.467404 0.076768
vt 0.301859 0.054419
vt 0.303481 0.054419
vt 0.305088 0.054419
vt 0.305088 0.055226
vt 0.301859 0.057649
vt 0.301859 0.056841
vt 0.305088 0.057649
vt 0.303481 0.057649
vt 0.305088 0.054419
vt 0.324620 0.695044
vt 0.321390 0.695044
vt 0.301859 0.057649
vt 0.462903 0.079339
vt 0.300913 0.058594
vt 0.306034 0.053474
vt 0.305088 0.057649
vt 0.472524 0.069099
vt 0.472524 0.070379
vt 0.462903 0.069099
vt 0.469953 0.072939
vt 0.472524 0.071659
vt 0.472524 0.072939
vt 0.305088 0.056034
vt 0.305088 0.056034
vt 0.305088 0.056841
vt 0.301859 0.055226
vt 0.301533 0.056034
vt 0.301533 0.055063
vt 0.305414 0.056034
vt 0.305414 0.057004
vt 0.300913 0.056034
vt 0.300913 0.054754
vt 0.306653 0.056034
vt 0.306653 0.057314
vt 0.462903 0.072939
vt 0.467404 0.071659
vt 0.467404 0.072939
vt 0.469953 0.071659
vt 0.462903 0.083179
vt 0.467404 0.081899
vt 0.467404 0.083179
vt 0.469953 0.074219
vt 0.462903 0.074219
vt 0.306653 0.058594
vt 0.301859 0.056034
vt 0.472524 0.074219
vt 0.301859 0.054419
vt 0.301859 0.056034
vt 0.462903 0.081899
vt 0.462903 0.084459
vt 0.467404 0.084459
vt 0.300913 0.053474
vt 0.462903 0.071659
vt 0.462903 0.063978
vt 0.321390 0.698273
vt 0.306653 0.053474
vt 0.306034 0.058594
vn 0.0000 -1.0000 0.0000
vn -1.0000 0.0000 0.0000
vn 0.0000 0.0000 -1.0000
vn 0.0000 0.0000 1.0000
vn 1.0000 0.0000 0.0000
vn 0.0000 -0.4472 0.8944
vn 0.4472 0.0000 0.8944
vn -0.4472 0.0000 0.8944
vn 0.0000 0.4472 0.8944
vn 0.0000 1.0000 0.0000
s off
f 24/1/1 4/2/1 22/3/1
f 46/4/2 3/5/2 44/6/2
f 54/7/3 22/8/3 53/9/3
f 19/10/4 38/11/4 37/12/4
f 55/13/5 2/14/5 54/7/5
f 14/15/6 24/16/6 23/17/6
f 13/18/7 55/19/7 50/20/7
f 16/21/8 46/22/8 42/23/8
f 15/24/9 26/25/9 25/26/9
f 26/27/10 1/28/10 21/29/10
f 11/30/4 23/17/4 27/31/4
f 7/32/4 50/20/4 52/33/4
f 9/34/4 42/23/4 43/35/4
f 5/36/4 25/26/4 28/37/4
f 7/32/2 52/33/2 17/38/2
f 17/39/4 38/11/4 18/40/4
f 28/37/1 9/34/1 20/41/1
f 9/34/4 25/26/4 16/21/4
f 7/32/4 23/17/4 13/18/4
f 10/42/10 21/29/10 3/5/10
f 16/21/9 26/25/9 10/43/9
f 13/18/6 24/16/6 8/44/6
f 28/37/1 20/41/1 19/45/1
f 53/9/3 4/46/3 49/47/3
f 8/48/1 22/3/1 2/14/1
f 48/49/3 29/50/3 44/51/3
f 52/33/2 37/52/2 17/38/2
f 35/53/2 47/54/2 37/52/2
f 9/34/5 43/35/5 20/41/5
f 57/55/4 33/56/4 56/57/4
f 47/54/4 31/58/4 45/59/4
f 56/57/8 34/60/8 51/61/8
f 45/59/7 32/62/7 41/63/7
f 41/64/5 30/65/5 40/66/5
f 40/66/3 39/67/3 48/49/3
f 51/68/2 29/69/2 49/70/2
f 1/28/3 48/49/3 21/71/3
f 6/72/5 40/66/5 1/28/5
f 15/24/7 41/63/7 6/73/7
f 5/36/4 45/59/4 15/24/4
f 52/33/2 35/53/2 37/52/2
f 20/41/5 43/35/5 38/74/5
f 21/71/3 44/51/3 3/75/3
f 57/55/5 11/30/5 18/76/5
f 43/35/4 33/56/4 36/77/4
f 42/23/8 34/60/8 33/56/8
f 34/78/2 44/6/2 29/69/2
f 12/79/2 49/70/2 4/80/2
f 14/15/8 51/61/8 12/81/8
f 11/30/4 56/57/4 14/15/4
f 27/31/10 17/38/10 18/76/10
f 39/67/3 49/47/3 29/50/3
f 47/54/2 5/36/2 19/45/2
f 52/33/4 31/58/4 35/53/4
f 50/20/7 32/62/7 31/58/7
f 32/82/5 54/7/5 30/65/5
f 30/65/3 53/9/3 39/67/3
f 11/30/10 27/31/10 18/76/10
f 36/77/5 57/55/5 38/74/5
f 27/31/10 7/32/10 17/38/10
f 37/52/2 47/54/2 19/45/2
f 5/36/1 28/37/1 19/45/1
f 57/55/5 18/76/5 38/74/5
f 43/35/5 36/77/5 38/74/5
f 24/1/1 12/83/1 4/2/1
f 46/4/2 10/42/2 3/5/2
f 54/7/3 2/14/3 22/8/3
f 19/10/4 20/84/4 38/11/4
f 55/13/5 8/48/5 2/14/5
f 14/15/6 12/81/6 24/16/6
f 13/18/7 8/85/7 55/19/7
f 16/21/8 10/43/8 46/22/8
f 15/24/9 6/86/9 26/25/9
f 26/27/10 6/72/10 1/28/10
f 11/30/4 14/15/4 23/17/4
f 7/32/4 13/18/4 50/20/4
f 9/34/4 16/21/4 42/23/4
f 5/36/4 15/24/4 25/26/4
f 17/39/4 37/12/4 38/11/4
f 9/34/4 28/37/4 25/26/4
f 7/32/4 27/31/4 23/17/4
f 10/42/10 26/27/10 21/29/10
f 16/21/9 25/26/9 26/25/9
f 13/18/6 23/17/6 24/16/6
f 53/9/3 22/8/3 4/46/3
f 8/48/1 24/1/1 22/3/1
f 48/49/3 39/67/3 29/50/3
f 57/55/4 36/77/4 33/56/4
f 47/54/4 35/53/4 31/58/4
f 56/57/8 33/56/8 34/60/8
f 45/59/7 31/58/7 32/62/7
f 41/64/5 32/82/5 30/65/5
f 40/66/3 30/65/3 39/67/3
f 51/68/2 34/78/2 29/69/2
f 1/28/3 40/66/3 48/49/3
f 6/72/5 41/64/5 40/66/5
f 15/24/7 45/59/7 41/63/7
f 5/36/4 47/54/4 45/59/4
f 21/71/3 48/49/3 44/51/3
f 43/35/4 42/23/4 33/56/4
f 42/23/8 46/22/8 34/60/8
f 34/78/2 46/4/2 44/6/2
f 12/79/2 51/68/2 49/70/2
f 14/15/8 56/57/8 51/61/8
f 11/30/4 57/55/4 56/57/4
f 39/67/3 53/9/3 49/47/3
f 52/33/4 50/20/4 31/58/4
f 50/20/7 55/19/7 32/62/7
f 32/82/5 55/13/5 54/7/5
f 30/65/3 54/7/3 53/9/3
