# Blender v2.91.0 OBJ File: 'engine.blend'
# www.blender.org
o Cube
v 0.500000 0.407603 0.407603
v 0.500000 0.407603 -0.407603
v 0.500000 -0.407603 0.407603
v 0.500000 -0.407603 -0.407603
v -0.500000 0.500000 0.500000
v -0.500000 0.500000 -0.500000
v -0.500000 -0.500000 0.500000
v -0.500000 -0.500000 -0.500000
v 0.500000 0.500000 0.500000
v 0.500000 0.500000 -0.500000
v 0.500000 -0.500000 0.500000
v 0.500000 -0.500000 -0.500000
v -0.105010 0.407603 0.407603
v -0.105010 0.407603 -0.407603
v -0.105010 -0.407603 0.407603
v -0.105010 -0.407603 -0.407603
v 0.426643 0.407603 0.407603
v 0.426643 0.407603 -0.407603
v 0.426643 -0.407603 0.407603
v 0.426643 -0.407603 -0.407603
vt 0.657122 0.923040
vt 0.672698 0.907464
vt 0.672698 0.923040
vt 0.688275 0.891888
vt 0.688275 0.907464
vt 0.672698 0.954192
vt 0.688275 0.938616
vt 0.688275 0.954192
vt 0.688275 0.923040
vt 0.703851 0.907464
vt 0.703851 0.923040
vt 0.189757 0.545101
vt 0.189757 0.532403
vt 0.189757 0.532403
vt 0.672698 0.938616
vt 0.175620 0.546540
vt 0.177059 0.545101
vt 0.177059 0.532403
vt 0.191196 0.530964
vt 0.175620 0.530964
vt 0.191196 0.546540
vt 0.189757 0.545101
vt 0.189757 0.532403
vt 0.177059 0.532403
vt 0.177059 0.545101
vt 0.174599 0.680444
vt 0.187296 0.667746
vt 0.187296 0.680444
vt 0.177059 0.532403
vt 0.177059 0.545101
vt 0.189757 0.545101
vt 0.657122 0.907464
vt 0.672698 0.891888
vt 0.174599 0.667746
vn 0.0000 0.0000 1.0000
vn 0.0000 -1.0000 0.0000
vn -1.0000 0.0000 0.0000
vn 0.0000 0.0000 -1.0000
vn 0.0000 1.0000 0.0000
vn 1.0000 0.0000 0.0000
s off
f 5/1/1 11/2/1 9/3/1
f 11/2/2 8/4/2 12/5/2
f 7/6/3 6/7/3 8/8/3
f 10/9/4 8/10/4 6/11/4
f 2/12/1 16/13/1 4/14/1
f 5/15/5 10/9/5 6/7/5
f 2/12/6 9/16/6 1/17/6
f 3/18/6 12/19/6 4/14/6
f 1/17/6 11/20/6 3/18/6
f 4/14/6 10/21/6 2/12/6
f 14/22/4 20/23/4 16/13/4
f 4/14/5 15/24/5 3/18/5
f 3/18/4 13/25/4 1/17/4
f 1/17/2 14/22/2 2/12/2
f 17/26/6 20/27/6 18/28/6
f 16/13/2 19/29/2 15/24/2
f 15/24/1 17/30/1 13/25/1
f 13/25/5 18/31/5 14/22/5
f 5/1/1 7/32/1 11/2/1
f 11/2/2 7/33/2 8/4/2
f 7/6/3 5/15/3 6/7/3
f 10/9/4 12/5/4 8/10/4
f 2/12/1 14/22/1 16/13/1
f 5/15/5 9/3/5 10/9/5
f 2/12/6 10/21/6 9/16/6
f 3/18/6 11/20/6 12/19/6
f 1/17/6 9/16/6 11/20/6
f 4/14/6 12/19/6 10/21/6
f 14/22/4 18/31/4 20/23/4
f 4/14/5 16/13/5 15/24/5
f 3/18/4 15/24/4 13/25/4
f 1/17/2 13/25/2 14/22/2
f 17/26/6 19/34/6 20/27/6
f 16/13/2 20/23/2 19/29/2
f 15/24/1 19/29/1 17/30/1
f 13/25/5 17/30/5 18/31/5
