# Blender v2.91.0 OBJ File: 'laser.blend'
# www.blender.org
o Cube
v 0.176356 0.176356 0.200000
v 0.350000 0.350000 -0.200000
v 0.176356 -0.176356 0.200000
v 0.350000 -0.350000 -0.200000
v -0.176356 0.176356 0.200000
v -0.350000 0.350000 -0.200000
v -0.176356 -0.176356 0.200000
v -0.350000 -0.350000 -0.200000
v 0.350000 -0.350000 0.200000
v -0.350000 -0.350000 0.200000
v 0.350000 0.350000 0.200000
v -0.350000 0.350000 0.200000
v 0.176356 -0.176356 0.889015
v 0.093413 -0.093413 0.936411
v -0.093413 -0.093413 0.936411
v -0.176356 -0.176356 0.889015
v 0.176356 0.176356 0.889015
v 0.093413 0.093413 0.936411
v -0.093413 0.093413 0.936411
v -0.176356 0.176356 0.889015
vt 0.205883 0.553593
vt 0.205883 0.544689
vt 0.205883 0.544689
vt 0.316611 0.576579
vt 0.298940 0.594250
vt 0.298940 0.576579
vt 0.316611 0.523565
vt 0.298940 0.541236
vt 0.298940 0.523565
vt 0.298940 0.558908
vt 0.281269 0.576579
vt 0.281269 0.558908
vt 0.316611 0.558908
vt 0.316611 0.541236
vt 0.329899 0.572195
vt 0.320995 0.572195
vt 0.320995 0.563291
vt 0.329899 0.563291
vt 0.334282 0.576579
vt 0.334282 0.558908
vt 0.196979 0.544689
vt 0.196979 0.553593
vt 0.196979 0.553593
vt 0.205883 0.553593
vt 0.196979 0.544689
vt 0.185187 0.678615
vt 0.178377 0.680709
vt 0.180471 0.678615
vt 0.178377 0.671805
vt 0.180471 0.673899
vt 0.185187 0.673899
vt 0.187281 0.680709
vt 0.187281 0.671805
vt 0.318504 0.673899
vt 0.313788 0.678615
vt 0.313788 0.673899
vt 0.316611 0.594250
vt 0.318504 0.678615
vn -1.0000 0.0000 0.0000
vn 0.0000 -1.0000 0.0000
vn 0.0000 0.0000 -1.0000
vn 1.0000 0.0000 0.0000
vn 0.0000 1.0000 0.0000
vn 0.0000 0.0000 1.0000
vn 0.0000 -0.4961 0.8682
vn 0.4961 0.0000 0.8682
vn -0.4961 0.0000 0.8682
vn 0.0000 0.4961 0.8682
s off
f 7/1/1 20/2/1 5/3/1
f 9/4/2 8/5/2 4/6/2
f 10/7/1 6/8/1 8/9/1
f 2/10/3 8/11/3 6/12/3
f 11/13/4 4/6/4 2/10/4
f 12/14/5 2/10/5 6/8/5
f 7/15/6 9/4/6 3/16/6
f 3/16/6 11/13/6 1/17/6
f 5/18/6 10/19/6 7/15/6
f 1/17/6 12/20/6 5/18/6
f 1/21/4 13/22/4 3/23/4
f 3/23/2 16/24/2 7/1/2
f 5/3/5 17/25/5 1/21/5
f 15/26/7 13/27/7 14/28/7
f 14/28/8 17/29/8 18/30/8
f 19/31/9 16/32/9 15/26/9
f 18/30/10 20/33/10 19/31/10
f 19/34/6 14/35/6 18/36/6
f 7/1/1 16/24/1 20/2/1
f 9/4/2 10/37/2 8/5/2
f 10/7/1 12/14/1 6/8/1
f 2/10/3 4/6/3 8/11/3
f 11/13/4 9/4/4 4/6/4
f 12/14/5 11/13/5 2/10/5
f 7/15/6 10/19/6 9/4/6
f 3/16/6 9/4/6 11/13/6
f 5/18/6 12/20/6 10/19/6
f 1/17/6 11/13/6 12/20/6
f 1/21/4 17/25/4 13/22/4
f 3/23/2 13/22/2 16/24/2
f 5/3/5 20/2/5 17/25/5
f 15/26/7 16/32/7 13/27/7
f 14/28/8 13/27/8 17/29/8
f 19/31/9 20/33/9 16/32/9
f 18/30/10 17/29/10 20/33/10
f 19/34/6 15/38/6 14/35/6
