# Blender v2.91.0 OBJ File: 'mining_missle.blend'
# www.blender.org
o Icosphere
v 0.000000 0.000000 -0.250000
v 0.180900 -0.131430 -0.111804
v -0.069096 -0.212660 -0.111804
v -0.223606 0.000000 -0.111804
v -0.069096 0.212660 -0.111804
v 0.180900 0.131430 -0.111804
v 0.069096 -0.212660 0.111804
v -0.180900 -0.131430 0.111804
v -0.180900 0.131430 0.111804
v 0.069096 0.212660 0.111804
v 0.223606 0.000000 0.111804
v 0.000000 0.000000 0.250000
vt 0.847470 0.656207
vt 0.839593 0.669850
vt 0.855346 0.669850
vt 0.831717 0.656207
vt 0.823840 0.669850
vt 0.784457 0.656207
vt 0.776581 0.669850
vt 0.792334 0.669850
vt 0.800210 0.656207
vt 0.808087 0.669850
vt 0.815963 0.656207
vt 0.831717 0.683493
vt 0.847470 0.683493
vt 0.784457 0.683493
vt 0.800210 0.683493
vt 0.815963 0.683493
vt 0.863223 0.683493
vt 0.839593 0.697135
vt 0.855346 0.697135
vt 0.792334 0.697135
vt 0.808087 0.697135
vt 0.823840 0.697135
vn 0.1876 -0.5774 -0.7947
vn 0.6071 0.0000 -0.7947
vn -0.4911 -0.3568 -0.7947
vn -0.4911 0.3568 -0.7947
vn 0.1876 0.5774 -0.7947
vn 0.9822 0.0000 -0.1876
vn 0.3035 -0.9342 -0.1876
vn -0.7946 -0.5774 -0.1876
vn -0.7946 0.5774 -0.1876
vn 0.3035 0.9342 -0.1876
vn 0.7946 -0.5774 0.1876
vn -0.3035 -0.9342 0.1876
vn -0.9822 0.0000 0.1876
vn -0.3035 0.9342 0.1876
vn 0.7946 0.5774 0.1876
vn 0.4911 -0.3568 0.7947
vn -0.1876 -0.5774 0.7947
vn -0.6071 0.0000 0.7947
vn -0.1876 0.5774 0.7947
vn 0.4911 0.3568 0.7947
s off
f 1/1/1 2/2/1 3/3/1
f 2/2/2 1/4/2 6/5/2
f 1/6/3 3/7/3 4/8/3
f 1/9/4 4/8/4 5/10/4
f 1/11/5 5/10/5 6/5/5
f 2/2/6 6/5/6 11/12/6
f 3/3/7 2/2/7 7/13/7
f 4/8/8 3/7/8 8/14/8
f 5/10/9 4/8/9 9/15/9
f 6/5/10 5/10/10 10/16/10
f 2/2/11 11/12/11 7/13/11
f 3/3/12 7/13/12 8/17/12
f 4/8/13 8/14/13 9/15/13
f 5/10/14 9/15/14 10/16/14
f 6/5/15 10/16/15 11/12/15
f 7/13/16 11/12/16 12/18/16
f 8/17/17 7/13/17 12/19/17
f 9/15/18 8/14/18 12/20/18
f 10/16/19 9/15/19 12/21/19
f 11/12/20 10/16/20 12/22/20
